<?xml version="1.0" encoding="UTF-8"?>
<svg width="15px" height="17px" viewBox="0 0 15 17" version="1.1" xmlns="http://www.w3.org/2000/svg" xmlns:xlink="http://www.w3.org/1999/xlink">
    <!-- Generator: sketchtool 52.5 (67469) - http://www.bohemiancoding.com/sketch -->
    <title>391E164C-16FD-4CE8-9BEB-C5D63946A9E0</title>
    <desc>Created with sketchtool.</desc>
    <g id="Symbols" stroke="none" stroke-width="1" fill="none" fill-rule="evenodd">
        <g id="Meme-Item" transform="translate(-352.000000, -320.000000)" fill="#272727">
            <path d="M364.272727,325.666667 C365.772727,325.666667 367,324.391667 367,322.833333 C367,321.275 365.772727,320 364.272727,320 C362.772727,320 361.545455,321.275 361.545455,322.833333 C361.545455,323.116667 361.613636,323.329167 361.681818,323.541667 L356.704545,326.516667 C356.159091,326.020833 355.477273,325.666667 354.727273,325.666667 C353.227273,325.666667 352,326.941667 352,328.5 C352,330.058333 353.227273,331.333333 354.727273,331.333333 C355.477273,331.333333 356.159091,330.979167 356.704545,330.483333 L361.681818,333.458333 C361.613636,333.670833 361.545455,333.954167 361.545455,334.166667 C361.545455,335.725 362.772727,337 364.272727,337 C365.772727,337 367,335.725 367,334.166667 C367,332.608333 365.772727,331.333333 364.272727,331.333333 C363.522727,331.333333 362.840909,331.6875 362.295455,332.183333 L357.318182,329.208333 C357.386364,328.995833 357.454545,328.783333 357.454545,328.5 C357.454545,328.216667 357.386364,328.004167 357.318182,327.791667 L362.295455,324.816667 C362.840909,325.3125 363.522727,325.666667 364.272727,325.666667 Z" id="icon-share"></path>
        </g>
    </g>
</svg>